<svg width="347" height="315" viewBox="0 0 347 315" fill="none" xmlns="http://www.w3.org/2000/svg">
<path d="M319.784 65.0294L330.118 45.6544C330.494 44.9485 331.506 44.9485 331.882 45.6544L342.216 65.0294C342.571 65.6955 342.088 66.5 341.333 66.5H320.667C319.912 66.5 319.429 65.6955 319.784 65.0294Z" fill="#5FD9DB"/>
<path fill-rule="evenodd" clip-rule="evenodd" d="M9.59848 26.7807C3.4823 32.3873 0 40.3035 0 48.6007V232.908C0 240.478 3.30242 247.671 9.04313 252.605C14.8779 257.62 22.3169 260.378 30.0108 260.378H216.781C217.805 260.378 218.805 260.693 219.644 261.28L279.521 303.118C283.349 305.793 288.43 302.224 287.211 297.715L277.647 262.32C277.383 261.341 278.12 260.378 279.134 260.378H279.757C286.82 260.378 293.585 257.531 298.522 252.481C303.316 247.578 306 240.993 306 234.136V77.1759C306 71.8241 298.727 70.2135 296.467 75.065L234.898 207.263C234.078 209.025 232.31 210.152 230.366 210.152H193.276C191.278 210.152 189.472 208.962 188.683 207.127L160.435 141.421C159.893 140.16 159.893 138.731 160.436 137.47L175.284 102.962C177.036 98.888 182.832 98.9433 184.506 103.05L207.962 160.565C209.608 164.601 215.271 164.745 217.119 160.797L255.879 78.0361C256.19 77.3723 256.351 76.6484 256.351 75.9154V24C256.351 21.2386 254.112 19 251.351 19H29.6007C22.1947 19 15.0578 21.7762 9.59848 26.7807ZM138.498 77.0283C136.532 77.0283 134.749 78.1802 133.94 79.9721L99.1685 157.044C97.3086 161.166 91.3666 160.898 89.8863 156.624L63.4796 80.3917C62.7823 78.3784 60.8857 77.0283 58.7551 77.0283H25.4244C21.8997 77.0283 19.4815 80.5773 20.771 83.8576L69.1741 206.981C69.926 208.894 71.772 210.152 73.8274 210.152H111.344C113.27 210.152 115.025 209.045 115.856 207.307L173.943 85.7119C174.61 84.3166 174.593 82.6915 173.899 81.31L173.13 79.7817C172.281 78.0935 170.553 77.0283 168.663 77.0283H138.498Z" fill="#5FD9DB"/>
<circle cx="333" cy="19" r="14" fill="#5FD9DB"/>
<rect x="270" y="19" width="36" height="36" rx="5" fill="#5FD9DB"/>
</svg>
